<?xml version="1.0" encoding="UTF-8"?>
<svg id="Layer_1" data-name="Layer 1" xmlns="http://www.w3.org/2000/svg" version="1.1" viewBox="0 0 114 103.4">
  <defs>
    <style>
      .cls-1, .cls-2 {
        fill: #000;
        stroke-width: 0px;
      }

      .cls-2 {
        fill-opacity: .9;
      }
    </style>
  </defs>
  <path class="cls-2" d="M56.9,100c6.3,0,12.8-1.4,19.4-4.3,6.7-2.9,11.9-7.2,15.8-12.8,0-.5-.2-1-.8-1.4-.5-.4-1-.6-1.6-.6-6.2,7.6-15.4,11.4-27.6,11.4s-22.5-3.9-29-11.6c-6.5-7.8-9.8-17.4-9.8-28.9s.6-10.2,1.7-15.1c1.2-4.9,3-9.5,5.4-13.9,2.5-4.5,5.9-8.1,10.4-10.8,4.5-2.8,9.8-4.1,15.9-4.1s7.9.6,11.4,1.9,6.4,2.8,8.6,4.6,4.4,4.1,6.6,7.1c2.2,2.9,3.8,5.5,4.9,7.6,1.1,2.1,2.5,4.8,4,8.1,1.2-.2,2-.6,2.3-1.4-3.1-12.4-7.8-20.9-14-25.4-6.2-4.6-14.1-6.9-23.8-6.9s-7.9.5-12,1.4c-4.1.9-8.3,2.6-12.6,5-4.3,2.4-8.1,5.3-11.4,8.9-3.3,3.5-6,8.1-8.1,13.9-2.1,5.7-3.2,12.1-3.2,19.2s1.1,13.5,3.2,19.2c2.1,5.7,4.8,10.3,8.1,13.8s7.1,6.4,11.4,8.8c4.3,2.3,8.5,4,12.6,4.9,4.1,1,8.1,1.4,12,1.4ZM90.9,40c-1.8-4-3.4-7.3-4.9-9.9-1.5-2.6-3.5-5.5-6-8.8-2.5-3.2-5.5-5.8-8.9-7.6s-7.3-2.9-11.6-3.2c-4.8.4-8.9,1.9-12.4,4.6-3.5,2.6-6.3,6-8.2,10.1-1.9,4.1-3.3,8.4-4.2,12.9-.9,4.4-1.3,9-1.3,13.7,0,10.5,2.6,19.3,7.9,26.4s13.2,10.9,23.7,11.4c10.2-.5,18.1-4.3,23.9-11.4,1.6,0,3,.5,4.2,1.6,1.2,1,1.8,2.3,1.8,3.8-4.2,6.1-9.9,10.8-17.1,14-7.2,3.2-14.1,4.8-20.8,4.8s-8.4-.5-12.7-1.5c-4.2-1-8.7-2.7-13.2-5.1-4.5-2.5-8.6-5.6-12.1-9.3-3.5-3.7-6.4-8.6-8.6-14.6-2.2-6-3.3-12.8-3.3-20.2s1.1-14.7,3.4-20.8c2.3-6.1,5.2-11,8.8-14.7s7.8-6.7,12.6-9.1c4.8-2.5,9.4-4.1,13.9-5,4.5-.9,9.1-1.4,13.7-1.4s13,.8,20.4,2.5,12.6,2.7,15.8,3.1c-1.4,5.4-1.9,10.1-1.6,14.2.3,4,1.5,9,3.6,14.9-1.2,2.5-3.4,3.9-6.7,4.4Z"/>
  <path class="cls-1" d="M41.2,66.1c-.6,0-.9-.5-.9-1.4v-.6c0-.2,0-.4,0-.6,0-.2.2-.3.4-.5.4-.4.8-.7,1.2-1.1.4-.4.8-.7,1.1-1.1,0,0,.1,0,.2,0,0,0,.1,0,.1,0,0,0,.2-.2.3-.4.1-.2.3-.4.4-.5s.3-.2.4-.3c.1,0,.2-.3.2-.5.4-.4.7-.8,1.1-1.2.4-.4.7-.9,1-1.3.3-.1.5-.5.8-1,.3-.5.5-.9.7-1.2.2,0,.3,0,.3-.3,0-.2,0-.4.1-.5.4-.8.9-1.5,1.2-2.3.4-.7.7-1.5.9-2.4,0-.2.1-.3.2-.4,0-.1.2-.3.2-.4v-.2c0-.1,0-.3,0-.4,0-.2,0-.3,0-.5,0-.2,0-.4,0-.7,0-.4,0-.6.1-.7,0-.2.2-.2.2-.1,0,0,.2,0,.2,0,0,0,0-.2,0-.3,0-.2,0-.3,0-.3s0,0,0,0-.1,0-.3.2c-.1,0-.2.1-.2,0v-.5c-.2-.2-.3-.3-.3-.4,0,0,0-.3,0-.5h0c0-.4-.2-.5-.5-.4-.5-.3-.9-.4-1.2-.4s-.6,0-.9.2c-.3,0-.6.1-.9.1s-.4-.1-.4-.3.1-.4.4-.5c.3-.2.6-.3.9-.3s.6,0,.7,0c.4,0,.8,0,1.3.2.4.1.8.3,1.2.6.5.4.9.9,1.1,1.6.2.6.3,1.2.3,1.9s0,1.2-.1,1.7c0,.5-.2,1.1-.4,1.6,0,.3-.2.5-.3.8s-.2.5-.3.8c0,0,0,.2,0,.4,0,.2,0,.3,0,.5,0,.3,0,.4.2.4s.3-.1.5-.3c1.1-1.1,2.2-2.2,3.2-3.3,1.1-1.1,2.2-2.1,3.4-3.1.3-.2.5-.4.8-.6.3-.2.5-.4.7-.6,0,0,.2-.2.3-.3.1,0,.2-.2.3-.2.4-.3.7-.5,1.1-.8.3-.3.7-.5,1-.8.5-.3,1-.6,1.4-.8.5-.3,1-.5,1.5-.7h0c0,0,.2,0,.2,0,0,0,.1,0,.2,0,0,0,.2-.1.2-.2,0,0,.2-.1.3-.1.4,0,.9-.1,1.3-.1.6,0,1.2,0,1.8.3.6.2,1.1.5,1.4,1,0,.2.1.3.1.4,0,0,.1.2.3.2.2.4.4.8.4,1.3,0,.4.1.8.1,1.3s0,1.2-.1,1.8c0,.3-.1.5-.2.8,0,.3-.1.5,0,.8h0c-.2.4-.3.6-.2.9v.3c-.3,0-.4.2-.4.4v.5h0c-.4,1.3-.9,2.5-1.5,3.7-.6,1.2-1.2,2.4-1.8,3.5,0,0,0,.2-.2.4-.1.3-.2.5-.3.8,0,.3,0,.4,0,.4.2,0,.4,0,.6-.3.2-.2.4-.4.5-.5.3-.3.5-.5.6-.8.2-.3.4-.6.6-.8,0,0,.1-.2.2-.2,0,0,.2-.2.3-.2.2-.1.3-.3.4-.5,0-.2.2-.4.3-.5l1.1-1.2c.3,0,.4,0,.5-.3,0-.2.2-.4.3-.5.1-.2.4-.5.9-1,.4-.5.8-.8,1-1,.4-.3.8-.5,1.2-.5.7,0,1.2.4,1.7,1.2,0,.1.2.4.3.9.2.5.3.8.3.9s0,.2,0,.3c0,0,0,.2,0,.2,0,0,.1,0,.1,0,0,0,.1,0,.1.2,0,.2.2.4.2.7,0,.3.1.5.1.8,0,.2,0,.3,0,.5,0,.2,0,.3,0,.5,0,0,.1.2.1.2,0,0,0,.2,0,.3.1.5.3,1,.4,1.5.2.5.3,1,.5,1.4h0c0,.4.1.7.4.7.6.8,1.3,1.2,2.2,1.2s.2,0,.3,0c.1,0,.3,0,.4,0,.2,0,.4,0,.5.1.2,0,.1.2-.1.4-.5.3-1,.5-1.5.5-.9,0-1.7-.2-2.4-.7-.6-.5-1.1-1.1-1.5-1.9-.4-.7-.7-1.5-1-2.3h.1c.3-.2.4-.3.4-.4s0-.1-.2-.1c-.1,0-.3,0-.4,0-.3-.5-.6-1.1-.7-1.7-.1-.6-.3-1.2-.6-1.8-.4-.8-.8-1.2-1.3-1.2s-.6.2-.9.5c-.3.3-.6.6-1,1l-1.3,1.5c-.3,0-.5.3-.5.7-.6.6-1.2,1.3-1.8,2-.6.7-1.3,1.3-2,1.8-.5.3-1,.5-1.6.5s-.5,0-.8-.2c-.2-.1-.3-.4-.3-.7s0-.3,0-.5c.1-.4.3-.8.5-1.1.3-.3.5-.6.7-1,.3-.4.5-.9.8-1.4.3-.6.5-1.1.8-1.3,0-.2.2-.3.3-.4.1-.1.2-.3.2-.5l.4-.9c.3,0,.4-.2.4-.4s0-.3,0-.5,0-.4.2-.5c.1-.2.2-.4.2-.6.1-.5.3-.9.5-1.3.2-.4.4-.9.4-1.4h0c.2-.8.4-1.5.5-2.3.1-.8.2-1.5.2-2.3s-.1-1.2-.4-1.6c-.2-.4-.7-.6-1.5-.6s-.5,0-.8,0c-.3,0-.6,0-.8,0,0,0-.1,0-.2,0s-.3,0-.5.3h-.2s-.2,0-.2,0c-.1,0-.3,0-.4.2,0,.1-.2.2-.3.3h0c-1.1.5-2.1,1.1-3.1,1.9-1,.7-1.9,1.4-2.8,2.2,0,0,0,0-.2.1,0,0-.2,0-.2.1-1.2,1-2.4,2-3.6,3.2-1.1,1.1-2.2,2.2-3.3,3.4-.3,0-.4.1-.5.4-.2,0-.3.2-.3.3,0,.1,0,.3,0,.4-.2.2-.4.4-.7.7s-.5.5-.6.7c-.1.2-.4.5-.7.9-.3.4-.6.7-.8.9s-.3.2-.5.3c-.2,0-.2.3-.2.5-.1.2-.3.4-.4.6-.2.2-.3.4-.5.5-.3.4-.6.8-.8,1.2-.2.4-.5.8-.8,1.1,0,0-.2.2-.4.3-.2.1-.3.2-.3.3,0,0,0,.1,0,.2,0,0,0,.1,0,.2-.2.4-.5.8-.8,1.2-.3.4-.5.9-.8,1.2-.2.3-.5.6-.9.8-.4.2-.7.3-1,.3Z"/>
</svg>