<?xml version="1.0" ?><!DOCTYPE svg  PUBLIC '-//W3C//DTD SVG 1.1//EN'  'http://www.w3.org/Graphics/SVG/1.1/DTD/svg11.dtd'><svg height="100%" style="fill-rule:evenodd;clip-rule:evenodd;stroke-linejoin:round;stroke-miterlimit:2;" version="1.1" viewBox="0 0 24 24" width="100%" xml:space="preserve" xmlns="http://www.w3.org/2000/svg" xmlns:serif="http://www.serif.com/" xmlns:xlink="http://www.w3.org/1999/xlink"><g id="Icon"><path d="M12,2.25c-5.381,0 -9.75,4.369 -9.75,9.75c0,5.381 4.369,9.75 9.75,9.75c5.381,0 9.75,-4.369 9.75,-9.75c0,-5.381 -4.369,-9.75 -9.75,-9.75Zm0,1.5c4.553,0 8.25,3.697 8.25,8.25c0,4.553 -3.697,8.25 -8.25,8.25c-4.553,0 -8.25,-3.697 -8.25,-8.25c0,-4.553 3.697,-8.25 8.25,-8.25Z"/><path d="M11.25,7l0,4.586c-0,0.464 0.184,0.909 0.513,1.237c0.754,0.755 2.707,2.707 2.707,2.707c0.292,0.293 0.768,0.293 1.06,0c0.293,-0.292 0.293,-0.768 0,-1.06c0,-0 -1.952,-1.953 -2.707,-2.707c-0.047,-0.047 -0.073,-0.111 -0.073,-0.177c0,-1.199 0,-4.586 0,-4.586c0,-0.414 -0.336,-0.75 -0.75,-0.75c-0.414,-0 -0.75,0.336 -0.75,0.75Z"/></g></svg>